<svg xmlns="http://www.w3.org/2000/svg" viewBox="0 0 1299.0599 384.70801">
    <g fill="#333">
        <path d="M23.514 97.625H68.87c1.57 0 2.835 1.262 2.835 2.832v45.355c0 1.57-1.265 2.836-2.836 2.836H23.513c-1.57 0-2.832-1.266-2.832-2.836v-45.355c0-1.57 1.262-2.832 2.832-2.832z"/>
        <path d="M23.514 23.14H68.87c1.57 0 2.835 1.263 2.835 2.833v45.355c0 1.57-1.265 2.836-2.836 2.836H23.513c-1.57 0-2.832-1.266-2.832-2.836V25.973c0-1.57 1.262-2.832 2.832-2.832z"/>
        <path d="M113.05 23.14h45.356c1.57 0 2.836 1.263 2.836 2.833v45.355c0 1.57-1.265 2.836-2.836 2.836H113.05c-1.57 0-2.83-1.266-2.83-2.836V25.973c0-1.57 1.26-2.832 2.83-2.832z"/>
        <path d="M166.886 23.14h45.355c1.572 0 2.837 1.263 2.837 2.833v45.355c0 1.57-1.265 2.836-2.836 2.836h-45.354c-1.57 0-2.832-1.266-2.832-2.836V25.973c0-1.57 1.262-2.832 2.832-2.832z"/>
        <path d="M220.636 23.14h45.355c1.572 0 2.837 1.263 2.837 2.833v45.355c0 1.57-1.265 2.836-2.836 2.836h-45.354c-1.57 0-2.832-1.266-2.832-2.836V25.973c0-1.57 1.262-2.832 2.832-2.832z"/>
        <path d="M274.386 23.14h45.355c1.572 0 2.837 1.263 2.837 2.833v45.355c0 1.57-1.265 2.836-2.836 2.836h-45.354c-1.57 0-2.832-1.266-2.832-2.836V25.973c0-1.57 1.262-2.832 2.832-2.832z"/>
        <path d="M363.917 23.14h45.354c1.572 0 2.837 1.263 2.837 2.833v45.355c0 1.57-1.265 2.836-2.836 2.836h-45.353c-1.57 0-2.832-1.266-2.832-2.836V25.973c0-1.57 1.262-2.832 2.832-2.832z"/>
        <path d="M417.752 23.14h45.355c1.57 0 2.836 1.263 2.836 2.833v45.355c0 1.57-1.265 2.836-2.836 2.836h-45.355c-1.57 0-2.832-1.266-2.832-2.836V25.973c0-1.57 1.263-2.832 2.832-2.832z"/>
        <path d="M471.502 23.14h45.355c1.57 0 2.836 1.263 2.836 2.833v45.355c0 1.57-1.265 2.836-2.836 2.836h-45.355c-1.57 0-2.832-1.266-2.832-2.836V25.973c0-1.57 1.263-2.832 2.832-2.832z"/>
        <path d="M525.252 23.14h45.355c1.57 0 2.836 1.263 2.836 2.833v45.355c0 1.57-1.265 2.836-2.836 2.836h-45.355c-1.57 0-2.832-1.266-2.832-2.836V25.973c0-1.57 1.263-2.832 2.832-2.832z"/>
        <path d="M615.06 23.14h45.356c1.57 0 2.836 1.263 2.836 2.833v45.355c0 1.57-1.265 2.836-2.836 2.836H615.06c-1.57 0-2.83-1.266-2.83-2.836V25.973c0-1.57 1.26-2.832 2.83-2.832z"/>
        <path d="M668.897 23.14h45.355c1.57 0 2.836 1.263 2.836 2.833v45.355c0 1.57-1.266 2.836-2.836 2.836h-45.355c-1.57 0-2.832-1.266-2.832-2.836V25.973c0-1.57 1.262-2.832 2.832-2.832z"/>
        <path d="M722.647 23.14h45.355c1.57 0 2.836 1.263 2.836 2.833v45.355c0 1.57-1.266 2.836-2.836 2.836h-45.355c-1.57 0-2.832-1.266-2.832-2.836V25.973c0-1.57 1.26-2.832 2.832-2.832z"/>
        <path d="M868.768 23.14h45.355c1.57 0 2.836 1.263 2.836 2.833v45.355c0 1.57-1.266 2.836-2.837 2.836h-45.355c-1.57 0-2.832-1.266-2.832-2.836V25.973c0-1.57 1.262-2.832 2.832-2.832z"/>
        <path d="M922.604 23.14h45.355c1.57 0 2.835 1.263 2.835 2.833v45.355c0 1.57-1.266 2.836-2.836 2.836h-45.356c-1.57 0-2.832-1.266-2.832-2.836V25.973c0-1.57 1.262-2.832 2.832-2.832z"/>
        <path d="M976.354 23.14h45.355c1.57 0 2.835 1.263 2.835 2.833v45.355c0 1.57-1.266 2.836-2.836 2.836h-45.356c-1.57 0-2.832-1.266-2.832-2.836V25.973c0-1.57 1.26-2.832 2.832-2.832z"/>
        <path d="M868.768 97.625h45.355c1.57 0 2.836 1.262 2.836 2.832v45.355c0 1.57-1.266 2.836-2.837 2.836h-45.355c-1.57 0-2.832-1.266-2.832-2.836v-45.355c0-1.57 1.262-2.832 2.832-2.832z"/>
        <path d="M922.604 97.625h45.355c1.57 0 2.835 1.262 2.835 2.832v45.355c0 1.57-1.266 2.836-2.836 2.836h-45.356c-1.57 0-2.832-1.266-2.832-2.836v-45.355c0-1.57 1.262-2.832 2.832-2.832z"/>
        <path d="M976.354 97.625h45.355c1.57 0 2.835 1.262 2.835 2.832v45.355c0 1.57-1.266 2.836-2.836 2.836h-45.356c-1.57 0-2.832-1.266-2.832-2.836v-45.355c0-1.57 1.26-2.832 2.832-2.832z"/>
        <path d="M1068.894 97.625h45.355c1.57 0 2.835 1.262 2.835 2.832v45.355c0 1.57-1.265 2.836-2.836 2.836h-45.356c-1.57 0-2.832-1.266-2.832-2.836v-45.355c0-1.57 1.262-2.832 2.832-2.832z"/>
        <path d="M1122.73 97.625h45.355c1.57 0 2.836 1.262 2.836 2.832v45.355c0 1.57-1.265 2.836-2.835 2.836h-45.355c-1.57 0-2.832-1.266-2.832-2.836v-45.355c0-1.57 1.262-2.832 2.832-2.832z"/>
        <path d="M1176.48 97.625h45.355c1.57 0 2.836 1.262 2.836 2.832v45.355c0 1.57-1.265 2.836-2.835 2.836h-45.355c-1.57 0-2.832-1.266-2.832-2.836v-45.355c0-1.57 1.26-2.832 2.832-2.832z"/>
        <path d="M1230.253 97.625h45.355c1.57 0 2.836 1.262 2.836 2.832v45.355c0 1.57-1.266 2.836-2.836 2.836h-45.355c-1.57 0-2.832-1.266-2.832-2.836v-45.355c0-1.57 1.263-2.832 2.833-2.832z"/>
        <path d="M1068.894 151.48h45.355c1.57 0 2.835 1.262 2.835 2.832v45.355c0 1.57-1.265 2.836-2.836 2.836h-45.356c-1.57 0-2.832-1.266-2.832-2.836v-45.355c0-1.57 1.262-2.832 2.832-2.832z"/>
        <path d="M1122.73 151.48h45.355c1.57 0 2.836 1.262 2.836 2.832v45.355c0 1.57-1.265 2.836-2.835 2.836h-45.355c-1.57 0-2.832-1.266-2.832-2.836v-45.355c0-1.57 1.262-2.832 2.832-2.832z"/>
        <path d="M1176.48 151.48h45.355c1.57 0 2.836 1.262 2.836 2.832v45.355c0 1.57-1.265 2.836-2.835 2.836h-45.355c-1.57 0-2.832-1.266-2.832-2.836v-45.355c0-1.57 1.26-2.832 2.832-2.832z"/>
        <path d="M1230.253 151.48h45.355c1.57 0 2.836 1.262 2.836 2.832v99.215c0 1.57-1.266 2.836-2.836 2.836h-45.355c-1.57 0-2.832-1.266-2.832-2.836v-99.215c0-1.57 1.263-2.832 2.833-2.832z"/>
        <path d="M1068.956 205.34h45.355c1.572 0 2.837 1.26 2.837 2.83v45.356c0 1.57-1.265 2.836-2.836 2.836h-45.354c-1.57 0-2.832-1.266-2.832-2.836V208.17c0-1.57 1.263-2.83 2.832-2.83z"/>
        <path d="M1122.792 205.34h45.355c1.57 0 2.836 1.26 2.836 2.83v45.356c0 1.57-1.266 2.836-2.836 2.836h-45.355c-1.57 0-2.832-1.266-2.832-2.836V208.17c0-1.57 1.263-2.83 2.832-2.83z"/>
        <path d="M1176.542 205.34h45.355c1.57 0 2.836 1.26 2.836 2.83v45.356c0 1.57-1.266 2.836-2.836 2.836h-45.355c-1.57 0-2.832-1.266-2.832-2.836V208.17c0-1.57 1.262-2.83 2.832-2.83z"/>
        <path d="M1068.894 259.2h45.355c1.57 0 2.835 1.26 2.835 2.83v45.356c0 1.57-1.265 2.836-2.836 2.836h-45.356c-1.57 0-2.832-1.266-2.832-2.836V262.03c0-1.57 1.262-2.83 2.832-2.83z"/>
        <path d="M1122.73 259.2h45.355c1.57 0 2.836 1.26 2.836 2.83v45.356c0 1.57-1.265 2.836-2.835 2.836h-45.355c-1.57 0-2.832-1.266-2.832-2.836V262.03c0-1.57 1.262-2.83 2.832-2.83z"/>
        <path d="M1176.48 259.2h45.355c1.57 0 2.836 1.26 2.836 2.83v45.356c0 1.57-1.265 2.836-2.835 2.836h-45.355c-1.57 0-2.832-1.266-2.832-2.836V262.03c0-1.57 1.26-2.83 2.832-2.83z"/>
        <path d="M1230.253 259.2h45.355c1.57 0 2.836 1.26 2.836 2.83v99.216c0 1.57-1.266 2.836-2.836 2.836h-45.355c-1.57 0-2.832-1.266-2.832-2.836V262.03c0-1.57 1.263-2.83 2.833-2.83z"/>
        <path d="M1068.894 313.058h99.19c1.57 0 2.836 1.262 2.836 2.832v45.355c0 1.57-1.265 2.836-2.836 2.836h-99.19c-1.57 0-2.832-1.265-2.832-2.835V315.89c0-1.57 1.262-2.832 2.832-2.832z"/>
        <path d="M1176.48 313.058h45.355c1.57 0 2.836 1.262 2.836 2.832v45.355c0 1.57-1.265 2.836-2.835 2.836h-45.355c-1.57 0-2.832-1.265-2.832-2.835V315.89c0-1.57 1.26-2.832 2.832-2.832z"/>
        <path d="M868.768 151.48h45.355c1.57 0 2.836 1.262 2.836 2.832v45.355c0 1.57-1.266 2.836-2.837 2.836h-45.355c-1.57 0-2.832-1.266-2.832-2.836v-45.355c0-1.57 1.262-2.832 2.832-2.832z"/>
        <path d="M922.604 151.48h45.355c1.57 0 2.835 1.262 2.835 2.832v45.355c0 1.57-1.266 2.836-2.836 2.836h-45.356c-1.57 0-2.832-1.266-2.832-2.836v-45.355c0-1.57 1.262-2.832 2.832-2.832z"/>
        <path d="M976.354 151.48h45.355c1.57 0 2.835 1.262 2.835 2.832v45.355c0 1.57-1.266 2.836-2.836 2.836h-45.356c-1.57 0-2.832-1.266-2.832-2.836v-45.355c0-1.57 1.26-2.832 2.832-2.832z"/>
        <path d="M922.604 259.2h45.355c1.57 0 2.835 1.26 2.835 2.83v45.356c0 1.57-1.266 2.836-2.836 2.836h-45.356c-1.57 0-2.832-1.266-2.832-2.836V262.03c0-1.57 1.262-2.83 2.832-2.83z"/>
        <path d="M868.768 313.058h45.355c1.57 0 2.836 1.262 2.836 2.832v45.355c0 1.57-1.266 2.836-2.837 2.836h-45.355c-1.57 0-2.832-1.265-2.832-2.835V315.89c0-1.57 1.262-2.832 2.832-2.832z"/>
        <path d="M922.604 313.058h45.355c1.57 0 2.835 1.262 2.835 2.832v45.355c0 1.57-1.266 2.836-2.836 2.836h-45.356c-1.57 0-2.832-1.265-2.832-2.835V315.89c0-1.57 1.262-2.832 2.832-2.832z"/>
        <path d="M976.354 313.058h45.355c1.57 0 2.835 1.262 2.835 2.832v45.355c0 1.57-1.266 2.836-2.836 2.836h-45.356c-1.57 0-2.832-1.265-2.832-2.835V315.89c0-1.57 1.26-2.832 2.832-2.832z"/>
        <path d="M776.397 23.14h45.355c1.57 0 2.836 1.263 2.836 2.833v45.355c0 1.57-1.266 2.836-2.836 2.836h-45.355c-1.57 0-2.832-1.266-2.832-2.836V25.973c0-1.57 1.26-2.832 2.832-2.832z"/>
        <path d="M23.514 151.48H94.38c1.57 0 2.837 1.266 2.837 2.836v45.355c0 1.57-1.266 2.833-2.836 2.833H23.515c-1.57 0-2.832-1.262-2.832-2.832v-45.354c0-1.57 1.262-2.836 2.832-2.836z"/>
        <path d="M102.885 151.48h45.355c1.57 0 2.836 1.266 2.836 2.836v45.355c0 1.57-1.266 2.833-2.836 2.833h-45.355c-1.57 0-2.832-1.262-2.832-2.832v-45.354c0-1.57 1.262-2.836 2.832-2.836z"/>
        <path d="M23.514 205.34h83.625c1.57 0 2.83 1.265 2.83 2.835v45.352c0 1.57-1.26 2.836-2.83 2.836H23.513c-1.57 0-2.832-1.266-2.832-2.836v-45.352c0-1.57 1.262-2.836 2.832-2.836z"/>
        <path d="M115.897 205.34h45.355c1.57 0 2.832 1.265 2.832 2.835v45.352c0 1.57-1.262 2.836-2.832 2.836h-45.355c-1.57 0-2.836-1.266-2.836-2.836v-45.352c0-1.57 1.266-2.836 2.837-2.836z"/>
        <path d="M23.514 259.2H132.65c1.57 0 2.833 1.26 2.833 2.83v45.357c0 1.57-1.262 2.835-2.832 2.835H23.515c-1.57 0-2.832-1.266-2.832-2.835V262.03c0-1.57 1.262-2.83 2.832-2.83z"/>
        <path d="M141.72 259.2h45.356c1.57 0 2.832 1.26 2.832 2.83v45.357c0 1.57-1.262 2.835-2.832 2.835H141.72c-1.57 0-2.835-1.266-2.835-2.835V262.03c0-1.57 1.266-2.83 2.836-2.83z"/>
        <path d="M77.514 97.625h45.355c1.57 0 2.835 1.262 2.835 2.832v45.355c0 1.57-1.265 2.836-2.836 2.836H77.513c-1.57 0-2.832-1.266-2.832-2.836v-45.355c0-1.57 1.262-2.832 2.832-2.832z"/>
        <path d="M156.885 151.48h45.355c1.57 0 2.836 1.266 2.836 2.836v45.355c0 1.57-1.266 2.833-2.836 2.833h-45.355c-1.57 0-2.832-1.262-2.832-2.832v-45.354c0-1.57 1.262-2.836 2.832-2.836z"/>
        <path d="M169.897 205.34h45.355c1.57 0 2.832 1.265 2.832 2.835v45.352c0 1.57-1.262 2.836-2.832 2.836h-45.355c-1.57 0-2.836-1.266-2.836-2.836v-45.352c0-1.57 1.266-2.836 2.837-2.836z"/>
        <path d="M195.72 259.2h45.356c1.57 0 2.832 1.26 2.832 2.83v45.357c0 1.57-1.262 2.835-2.832 2.835H195.72c-1.57 0-2.835-1.266-2.835-2.835V262.03c0-1.57 1.266-2.83 2.836-2.83z"/>
        <path d="M131.514 97.625h45.355c1.57 0 2.835 1.262 2.835 2.832v45.355c0 1.57-1.265 2.836-2.836 2.836h-45.356c-1.57 0-2.832-1.266-2.832-2.836v-45.355c0-1.57 1.262-2.832 2.832-2.832z"/>
        <path d="M210.885 151.48h45.355c1.57 0 2.836 1.266 2.836 2.836v45.355c0 1.57-1.266 2.833-2.836 2.833h-45.355c-1.57 0-2.832-1.262-2.832-2.832v-45.354c0-1.57 1.262-2.836 2.832-2.836z"/>
        <path d="M223.897 205.34h45.355c1.57 0 2.832 1.265 2.832 2.835v45.352c0 1.57-1.262 2.836-2.832 2.836h-45.355c-1.57 0-2.836-1.266-2.836-2.836v-45.352c0-1.57 1.266-2.836 2.837-2.836z"/>
        <path d="M249.72 259.2h45.356c1.57 0 2.832 1.26 2.832 2.83v45.357c0 1.57-1.262 2.835-2.832 2.835H249.72c-1.57 0-2.835-1.266-2.835-2.835V262.03c0-1.57 1.266-2.83 2.836-2.83z"/>
        <path d="M185.514 97.625h45.355c1.57 0 2.835 1.262 2.835 2.832v45.355c0 1.57-1.265 2.836-2.836 2.836h-45.356c-1.57 0-2.832-1.266-2.832-2.836v-45.355c0-1.57 1.262-2.832 2.832-2.832z"/>
        <path d="M264.885 151.48h45.355c1.57 0 2.836 1.266 2.836 2.836v45.355c0 1.57-1.266 2.833-2.836 2.833h-45.355c-1.57 0-2.832-1.262-2.832-2.832v-45.354c0-1.57 1.262-2.836 2.832-2.836z"/>
        <path d="M277.897 205.34h45.355c1.57 0 2.832 1.265 2.832 2.835v45.352c0 1.57-1.262 2.836-2.832 2.836h-45.355c-1.57 0-2.836-1.266-2.836-2.836v-45.352c0-1.57 1.266-2.836 2.837-2.836z"/>
        <path d="M303.72 259.2h45.356c1.57 0 2.832 1.26 2.832 2.83v45.357c0 1.57-1.262 2.835-2.832 2.835H303.72c-1.57 0-2.835-1.266-2.835-2.835V262.03c0-1.57 1.266-2.83 2.836-2.83z"/>
        <path d="M239.514 97.625h45.355c1.57 0 2.835 1.262 2.835 2.832v45.355c0 1.57-1.265 2.836-2.836 2.836h-45.356c-1.57 0-2.832-1.266-2.832-2.836v-45.355c0-1.57 1.262-2.832 2.832-2.832z"/>
        <path d="M318.885 151.48h45.355c1.57 0 2.836 1.266 2.836 2.836v45.355c0 1.57-1.266 2.833-2.836 2.833h-45.355c-1.57 0-2.832-1.262-2.832-2.832v-45.354c0-1.57 1.262-2.836 2.832-2.836z"/>
        <path d="M331.897 205.34h45.355c1.57 0 2.832 1.265 2.832 2.835v45.352c0 1.57-1.262 2.836-2.832 2.836h-45.355c-1.57 0-2.836-1.266-2.836-2.836v-45.352c0-1.57 1.266-2.836 2.837-2.836z"/>
        <path d="M357.72 259.2h45.356c1.57 0 2.832 1.26 2.832 2.83v45.357c0 1.57-1.262 2.835-2.832 2.835H357.72c-1.57 0-2.835-1.266-2.835-2.835V262.03c0-1.57 1.266-2.83 2.836-2.83z"/>
        <path d="M293.514 97.625h45.355c1.57 0 2.835 1.262 2.835 2.832v45.355c0 1.57-1.265 2.836-2.836 2.836h-45.356c-1.57 0-2.832-1.266-2.832-2.836v-45.355c0-1.57 1.262-2.832 2.832-2.832z"/>
        <path d="M372.885 151.48h45.355c1.57 0 2.836 1.266 2.836 2.836v45.355c0 1.57-1.266 2.833-2.836 2.833h-45.355c-1.57 0-2.832-1.262-2.832-2.832v-45.354c0-1.57 1.262-2.836 2.832-2.836z"/>
        <path d="M385.897 205.34h45.355c1.57 0 2.832 1.265 2.832 2.835v45.352c0 1.57-1.262 2.836-2.832 2.836h-45.355c-1.57 0-2.836-1.266-2.836-2.836v-45.352c0-1.57 1.266-2.836 2.837-2.836z"/>
        <path d="M411.72 259.2h45.356c1.57 0 2.832 1.26 2.832 2.83v45.357c0 1.57-1.262 2.835-2.832 2.835H411.72c-1.57 0-2.835-1.266-2.835-2.835V262.03c0-1.57 1.266-2.83 2.836-2.83z"/>
        <path d="M347.514 97.625h45.355c1.57 0 2.835 1.262 2.835 2.832v45.355c0 1.57-1.265 2.836-2.836 2.836h-45.356c-1.57 0-2.832-1.266-2.832-2.836v-45.355c0-1.57 1.262-2.832 2.832-2.832z"/>
        <path d="M426.885 151.48h45.355c1.57 0 2.836 1.266 2.836 2.836v45.355c0 1.57-1.266 2.833-2.836 2.833h-45.355c-1.57 0-2.832-1.262-2.832-2.832v-45.354c0-1.57 1.262-2.836 2.832-2.836z"/>
        <path d="M439.897 205.34h45.355c1.57 0 2.832 1.265 2.832 2.835v45.352c0 1.57-1.262 2.836-2.832 2.836h-45.355c-1.57 0-2.836-1.266-2.836-2.836v-45.352c0-1.57 1.266-2.836 2.837-2.836z"/>
        <path d="M465.72 259.2h45.356c1.57 0 2.832 1.26 2.832 2.83v45.357c0 1.57-1.262 2.835-2.832 2.835H465.72c-1.57 0-2.835-1.266-2.835-2.835V262.03c0-1.57 1.266-2.83 2.836-2.83z"/>
        <path d="M401.514 97.625h45.355c1.57 0 2.835 1.262 2.835 2.832v45.355c0 1.57-1.265 2.836-2.836 2.836h-45.356c-1.57 0-2.832-1.266-2.832-2.836v-45.355c0-1.57 1.262-2.832 2.832-2.832z"/>
        <path d="M480.885 151.48h45.355c1.57 0 2.836 1.266 2.836 2.836v45.355c0 1.57-1.266 2.833-2.836 2.833h-45.355c-1.57 0-2.832-1.262-2.832-2.832v-45.354c0-1.57 1.262-2.836 2.832-2.836z"/>
        <path d="M493.897 205.34h45.355c1.57 0 2.832 1.265 2.832 2.835v45.352c0 1.57-1.262 2.836-2.832 2.836h-45.355c-1.57 0-2.836-1.266-2.836-2.836v-45.352c0-1.57 1.266-2.836 2.837-2.836z"/>
        <path d="M519.72 259.2h45.356c1.57 0 2.832 1.26 2.832 2.83v45.357c0 1.57-1.262 2.835-2.832 2.835H519.72c-1.57 0-2.835-1.266-2.835-2.835V262.03c0-1.57 1.266-2.83 2.836-2.83z"/>
        <path d="M455.514 97.625h45.355c1.57 0 2.835 1.262 2.835 2.832v45.355c0 1.57-1.265 2.836-2.836 2.836h-45.356c-1.57 0-2.832-1.266-2.832-2.836v-45.355c0-1.57 1.262-2.832 2.832-2.832z"/>
        <path d="M534.885 151.48h45.355c1.57 0 2.836 1.266 2.836 2.836v45.355c0 1.57-1.266 2.833-2.836 2.833h-45.355c-1.57 0-2.832-1.262-2.832-2.832v-45.354c0-1.57 1.262-2.836 2.832-2.836z"/>
        <path d="M547.897 205.34h45.355c1.57 0 2.832 1.265 2.832 2.835v45.352c0 1.57-1.262 2.836-2.832 2.836h-45.355c-1.57 0-2.836-1.266-2.836-2.836v-45.352c0-1.57 1.266-2.836 2.837-2.836z"/>
        <path d="M573.72 259.2h45.356c1.57 0 2.832 1.26 2.832 2.83v45.357c0 1.57-1.262 2.835-2.832 2.835H573.72c-1.57 0-2.835-1.266-2.835-2.835V262.03c0-1.57 1.266-2.83 2.836-2.83z"/>
        <path d="M509.514 97.625h45.355c1.57 0 2.835 1.262 2.835 2.832v45.355c0 1.57-1.265 2.836-2.836 2.836h-45.356c-1.57 0-2.832-1.266-2.832-2.836v-45.355c0-1.57 1.262-2.832 2.832-2.832z"/>
        <path d="M588.885 151.48h45.355c1.57 0 2.836 1.266 2.836 2.836v45.355c0 1.57-1.266 2.833-2.836 2.833h-45.355c-1.57 0-2.832-1.262-2.832-2.832v-45.354c0-1.57 1.262-2.836 2.832-2.836z"/>
        <path d="M601.897 205.34h45.355c1.57 0 2.832 1.265 2.832 2.835v45.352c0 1.57-1.262 2.836-2.832 2.836h-45.355c-1.57 0-2.836-1.266-2.836-2.836v-45.352c0-1.57 1.266-2.836 2.837-2.836z"/>
        <path d="M627.72 259.2h45.356c1.57 0 2.832 1.26 2.832 2.83v45.357c0 1.57-1.262 2.835-2.832 2.835H627.72c-1.57 0-2.835-1.266-2.835-2.835V262.03c0-1.57 1.266-2.83 2.836-2.83z"/>
        <path d="M563.514 97.625h45.355c1.57 0 2.835 1.262 2.835 2.832v45.355c0 1.57-1.265 2.836-2.836 2.836h-45.356c-1.57 0-2.832-1.266-2.832-2.836v-45.355c0-1.57 1.262-2.832 2.832-2.832z"/>
        <path d="M642.885 151.48h45.355c1.57 0 2.836 1.266 2.836 2.836v45.355c0 1.57-1.266 2.833-2.836 2.833h-45.355c-1.57 0-2.832-1.262-2.832-2.832v-45.354c0-1.57 1.262-2.836 2.832-2.836z"/>
        <path d="M655.897 205.34h45.355c1.57 0 2.832 1.265 2.832 2.835v45.352c0 1.57-1.262 2.836-2.832 2.836h-45.355c-1.57 0-2.836-1.266-2.836-2.836v-45.352c0-1.57 1.266-2.836 2.837-2.836z"/>
        <path d="M681.702 259.2h140.054c1.57 0 2.832 1.26 2.832 2.83v45.357c0 1.57-1.262 2.835-2.832 2.835H681.702c-1.57 0-2.836-1.266-2.836-2.835V262.03c0-1.57 1.266-2.83 2.836-2.83z"/>
        <path d="M709.67 205.34h112.086c1.57 0 2.832 1.265 2.832 2.835v45.352c0 1.57-1.262 2.836-2.832 2.836H709.67c-1.57 0-2.836-1.266-2.836-2.836v-45.352c0-1.57 1.266-2.836 2.836-2.836z"/>
        <path d="M617.514 97.625h45.355c1.57 0 2.835 1.262 2.835 2.832v45.355c0 1.57-1.266 2.836-2.836 2.836h-45.356c-1.57 0-2.832-1.266-2.832-2.836v-45.355c0-1.57 1.262-2.832 2.832-2.832z"/>
        <path d="M696.885 151.48h45.355c1.57 0 2.836 1.266 2.836 2.836v45.355c0 1.57-1.266 2.833-2.836 2.833h-45.355c-1.57 0-2.832-1.262-2.832-2.832v-45.354c0-1.57 1.262-2.836 2.832-2.836z"/>
        <path d="M671.514 97.625h45.355c1.57 0 2.835 1.262 2.835 2.832v45.355c0 1.57-1.266 2.836-2.836 2.836h-45.356c-1.57 0-2.832-1.266-2.832-2.836v-45.355c0-1.57 1.26-2.832 2.832-2.832z"/>
        <path d="M750.885 151.48h70.867c1.57 0 2.836 1.266 2.836 2.836v45.355c0 1.57-1.266 2.833-2.836 2.833h-70.867c-1.57 0-2.832-1.262-2.832-2.832v-45.354c0-1.57 1.262-2.836 2.832-2.836z"/>
        <path d="M821.752 148.648c1.57 0 2.836-1.266 2.836-2.836v-45.355c0-1.57-1.266-2.832-2.836-2.832h-96.238c-1.57 0-2.832 1.262-2.832 2.832v45.355c0 1.57 1.262 2.836 2.832 2.836h96.238z"/>
        <path d="M23.514 313.058h58.113c1.57 0 2.832 1.262 2.832 2.832v45.355c0 1.57-1.263 2.836-2.833 2.836H23.514c-1.57 0-2.832-1.265-2.832-2.835V315.89c0-1.57 1.262-2.832 2.832-2.832z"/>
        <path d="M89.846 313.058h58.11c1.57 0 2.835 1.262 2.835 2.832v45.355c0 1.57-1.265 2.836-2.835 2.836h-58.11c-1.57 0-2.835-1.265-2.835-2.835V315.89c0-1.57 1.266-2.832 2.836-2.832z"/>
        <path d="M156.565 313.058h58.11c1.57 0 2.835 1.262 2.835 2.832v45.355c0 1.57-1.266 2.836-2.836 2.836h-58.11c-1.57 0-2.835-1.265-2.835-2.835V315.89c0-1.57 1.265-2.832 2.835-2.832z"/>
        <path d="M763.643 313.058h58.11c1.57 0 2.835 1.262 2.835 2.832v45.355c0 1.57-1.266 2.836-2.836 2.836h-58.11c-1.57 0-2.835-1.265-2.835-2.835V315.89c0-1.57 1.265-2.832 2.836-2.832z"/>
        <path d="M697.027 313.058h58.11c1.57 0 2.835 1.262 2.835 2.832v45.355c0 1.57-1.266 2.836-2.836 2.836h-58.11c-1.57 0-2.835-1.265-2.835-2.835V315.89c0-1.57 1.267-2.832 2.837-2.832z"/>
        <path d="M630.277 313.058h58.11c1.57 0 2.835 1.262 2.835 2.832v45.355c0 1.57-1.266 2.836-2.836 2.836h-58.11c-1.57 0-2.835-1.265-2.835-2.835V315.89c0-1.57 1.267-2.832 2.837-2.832z"/>
        <path d="M563.527 313.058h58.11c1.57 0 2.835 1.262 2.835 2.832v45.355c0 1.57-1.266 2.836-2.836 2.836h-58.11c-1.57 0-2.835-1.265-2.835-2.835V315.89c0-1.57 1.267-2.832 2.837-2.832z"/>
        <path d="M496.777 313.058h58.11c1.57 0 2.835 1.262 2.835 2.832v45.355c0 1.57-1.266 2.836-2.836 2.836h-58.11c-1.57 0-2.835-1.265-2.835-2.835V315.89c0-1.57 1.267-2.832 2.837-2.832z"/>
        <path d="M223.22 313.058h264.966c1.57 0 2.836 1.262 2.836 2.832v45.355c0 1.57-1.266 2.836-2.836 2.836H223.22c-1.57 0-2.835-1.265-2.835-2.835V315.89c0-1.57 1.266-2.832 2.836-2.832z"/>
    </g>
</svg>
